<svg id="visual" viewBox="0 0 900 600" width="900" height="600" xmlns="http://www.w3.org/2000/svg" xmlns:xlink="http://www.w3.org/1999/xlink" version="1.1"><rect x="0" y="0" width="900" height="600" fill="#001220"></rect><defs><linearGradient id="grad1_0" x1="33.3%" y1="0%" x2="100%" y2="100%"><stop offset="20%" stop-color="#001220" stop-opacity="1"></stop><stop offset="80%" stop-color="#001220" stop-opacity="1"></stop></linearGradient></defs><defs><linearGradient id="grad2_0" x1="0%" y1="0%" x2="66.7%" y2="100%"><stop offset="20%" stop-color="#001220" stop-opacity="1"></stop><stop offset="80%" stop-color="#001220" stop-opacity="1"></stop></linearGradient></defs><g transform="translate(900, 0)"><path d="M0 486.7C-49.2 446.4 -98.4 406.1 -161.1 389C-223.8 371.8 -300.1 377.8 -344.2 344.2C-388.3 310.6 -400.1 237.3 -418.5 173.4C-436.9 109.4 -461.8 54.7 -486.7 0L0 0Z" fill="#FBAE3C"></path></g><g transform="translate(0, 600)"><path d="M0 -486.7C57.5 -467.1 115.1 -447.5 177.2 -427.8C239.3 -408 306 -388.3 344.2 -344.2C382.4 -300.1 392.1 -231.7 411.1 -170.3C430.1 -108.9 458.4 -54.4 486.7 0L0 0Z" fill="#FBAE3C"></path></g></svg>