<svg id="visual" viewBox="0 0 900 600" width="900" height="600" xmlns="http://www.w3.org/2000/svg" xmlns:xlink="http://www.w3.org/1999/xlink" version="1.1"><path d="M0 175L13.7 176C27.3 177 54.7 179 82 172C109.3 165 136.7 149 163.8 142C191 135 218 137 245.2 144C272.3 151 299.7 163 327 172C354.3 181 381.7 187 409 194C436.3 201 463.7 209 491 209C518.3 209 545.7 201 573 188C600.3 175 627.7 157 654.8 161C682 165 709 191 736.2 186C763.3 181 790.7 145 818 159C845.3 173 872.7 237 886.3 269L900 301L900 0L886.3 0C872.7 0 845.3 0 818 0C790.7 0 763.3 0 736.2 0C709 0 682 0 654.8 0C627.7 0 600.3 0 573 0C545.7 0 518.3 0 491 0C463.7 0 436.3 0 409 0C381.7 0 354.3 0 327 0C299.7 0 272.3 0 245.2 0C218 0 191 0 163.8 0C136.7 0 109.3 0 82 0C54.7 0 27.3 0 13.7 0L0 0Z" fill="#6198ff"></path><path d="M0 217L13.7 225C27.3 233 54.7 249 82 253C109.3 257 136.7 249 163.8 244C191 239 218 237 245.2 245C272.3 253 299.7 271 327 276C354.3 281 381.7 273 409 281C436.3 289 463.7 313 491 315C518.3 317 545.7 297 573 283C600.3 269 627.7 261 654.8 269C682 277 709 301 736.2 286C763.3 271 790.7 217 818 224C845.3 231 872.7 299 886.3 333L900 367L900 299L886.3 267C872.7 235 845.3 171 818 157C790.7 143 763.3 179 736.2 184C709 189 682 163 654.8 159C627.7 155 600.3 173 573 186C545.7 199 518.3 207 491 207C463.7 207 436.3 199 409 192C381.7 185 354.3 179 327 170C299.7 161 272.3 149 245.2 142C218 135 191 133 163.8 140C136.7 147 109.3 163 82 170C54.7 177 27.3 175 13.7 174L0 173Z" fill="#3c80ff"></path><path d="M0 343L13.7 355C27.3 367 54.7 391 82 397C109.3 403 136.7 391 163.8 379C191 367 218 355 245.2 352C272.3 349 299.7 355 327 363C354.3 371 381.7 381 409 391C436.3 401 463.7 411 491 416C518.3 421 545.7 421 573 413C600.3 405 627.7 389 654.8 386C682 383 709 393 736.2 383C763.3 373 790.7 343 818 347C845.3 351 872.7 389 886.3 408L900 427L900 365L886.3 331C872.7 297 845.3 229 818 222C790.7 215 763.3 269 736.2 284C709 299 682 275 654.8 267C627.7 259 600.3 267 573 281C545.7 295 518.3 315 491 313C463.7 311 436.3 287 409 279C381.7 271 354.3 279 327 274C299.7 269 272.3 251 245.2 243C218 235 191 237 163.8 242C136.7 247 109.3 255 82 251C54.7 247 27.3 231 13.7 223L0 215Z" fill="#0066ff"></path><path d="M0 445L13.7 452C27.3 459 54.7 473 82 470C109.3 467 136.7 447 163.8 435C191 423 218 419 245.2 418C272.3 417 299.7 419 327 430C354.3 441 381.7 461 409 474C436.3 487 463.7 493 491 499C518.3 505 545.7 511 573 503C600.3 495 627.7 473 654.8 469C682 465 709 479 736.2 462C763.3 445 790.7 397 818 396C845.3 395 872.7 441 886.3 464L900 487L900 425L886.3 406C872.7 387 845.3 349 818 345C790.7 341 763.3 371 736.2 381C709 391 682 381 654.8 384C627.7 387 600.3 403 573 411C545.7 419 518.3 419 491 414C463.7 409 436.3 399 409 389C381.7 379 354.3 369 327 361C299.7 353 272.3 347 245.2 350C218 353 191 365 163.8 377C136.7 389 109.3 401 82 395C54.7 389 27.3 365 13.7 353L0 341Z" fill="#0059dd"></path><path d="M0 601L13.7 601C27.3 601 54.7 601 82 601C109.3 601 136.7 601 163.8 601C191 601 218 601 245.2 601C272.3 601 299.7 601 327 601C354.3 601 381.7 601 409 601C436.3 601 463.7 601 491 601C518.3 601 545.7 601 573 601C600.3 601 627.7 601 654.8 601C682 601 709 601 736.2 601C763.3 601 790.7 601 818 601C845.3 601 872.7 601 886.3 601L900 601L900 485L886.3 462C872.7 439 845.3 393 818 394C790.7 395 763.3 443 736.2 460C709 477 682 463 654.8 467C627.7 471 600.3 493 573 501C545.7 509 518.3 503 491 497C463.7 491 436.3 485 409 472C381.7 459 354.3 439 327 428C299.7 417 272.3 415 245.2 416C218 417 191 421 163.8 433C136.7 445 109.3 465 82 468C54.7 471 27.3 457 13.7 450L0 443Z" fill="#004cbb"></path></svg>