<svg id="visual" viewBox="0 0 900 600" width="900" height="600" xmlns="http://www.w3.org/2000/svg" xmlns:xlink="http://www.w3.org/1999/xlink" version="1.1"><path d="M0 115L82 115L82 73L164 73L164 91L245 91L245 49L327 49L327 115L409 115L409 85L491 85L491 67L573 67L573 103L655 103L655 97L736 97L736 103L818 103L818 109L900 109L900 85L900 0L900 0L818 0L818 0L736 0L736 0L655 0L655 0L573 0L573 0L491 0L491 0L409 0L409 0L327 0L327 0L245 0L245 0L164 0L164 0L82 0L82 0L0 0Z" fill="#fa7268"></path><path d="M0 193L82 193L82 169L164 169L164 175L245 175L245 139L327 139L327 199L409 199L409 133L491 133L491 115L573 115L573 157L655 157L655 175L736 175L736 193L818 193L818 211L900 211L900 163L900 83L900 107L818 107L818 101L736 101L736 95L655 95L655 101L573 101L573 65L491 65L491 83L409 83L409 113L327 113L327 47L245 47L245 89L164 89L164 71L82 71L82 113L0 113Z" fill="#ea5e66"></path><path d="M0 307L82 307L82 427L164 427L164 313L245 313L245 313L327 313L327 301L409 301L409 391L491 391L491 265L573 265L573 271L655 271L655 277L736 277L736 415L818 415L818 307L900 307L900 349L900 161L900 209L818 209L818 191L736 191L736 173L655 173L655 155L573 155L573 113L491 113L491 131L409 131L409 197L327 197L327 137L245 137L245 173L164 173L164 167L82 167L82 191L0 191Z" fill="#d84a64"></path><path d="M0 511L82 511L82 529L164 529L164 541L245 541L245 457L327 457L327 523L409 523L409 505L491 505L491 487L573 487L573 505L655 505L655 457L736 457L736 553L818 553L818 475L900 475L900 475L900 347L900 305L818 305L818 413L736 413L736 275L655 275L655 269L573 269L573 263L491 263L491 389L409 389L409 299L327 299L327 311L245 311L245 311L164 311L164 425L82 425L82 305L0 305Z" fill="#c53762"></path><path d="M0 601L82 601L82 601L164 601L164 601L245 601L245 601L327 601L327 601L409 601L409 601L491 601L491 601L573 601L573 601L655 601L655 601L736 601L736 601L818 601L818 601L900 601L900 601L900 473L900 473L818 473L818 551L736 551L736 455L655 455L655 503L573 503L573 485L491 485L491 503L409 503L409 521L327 521L327 455L245 455L245 539L164 539L164 527L82 527L82 509L0 509Z" fill="#b0235f"></path></svg>